<svg width="657" height="92" viewBox="0 0 657 92" fill="none" xmlns="http://www.w3.org/2000/svg">
<path d="M77.5888 68.84C79.5888 68.28 81.0288 67.76 81.9088 67.28C82.7888 66.72 83.3888 66 83.7088 65.12C84.0288 64.24 84.1888 62.88 84.1888 61.04V28.52C84.1888 25.72 83.9488 23.68 83.4688 22.4C83.0688 21.12 82.0688 20 80.4688 19.04L79.0288 18.2L79.5088 16.64C82.1488 15.84 85.4288 15.2 89.3488 14.72C93.2688 14.16 96.8688 13.88 100.149 13.88C110.309 13.88 118.029 16.4 123.309 21.44C128.669 26.4 131.349 33.6 131.349 43.04C131.349 51.6 128.869 58.4 123.909 63.44C119.029 68.48 112.349 71 103.869 71H78.4287L77.5888 68.84ZM102.789 68.6C113.589 68.6 118.989 60.08 118.989 43.04C118.989 35.2 117.429 28.92 114.309 24.2C111.269 19.4 107.229 17 102.189 17C100.109 17 98.5088 17.32 97.3888 17.96C96.2688 18.6 95.7088 19.52 95.7088 20.72V57.44C95.7088 61.2 96.2688 64 97.3888 65.84C98.5888 67.68 100.389 68.6 102.789 68.6ZM136.643 51.68C136.643 45.36 138.443 40.36 142.043 36.68C145.723 33 150.683 31.16 156.923 31.16C163.163 31.16 168.123 33.04 171.803 36.8C175.483 40.48 177.323 45.44 177.323 51.68C177.323 57.92 175.483 62.88 171.803 66.56C168.123 70.24 163.163 72.08 156.923 72.08C150.683 72.08 145.723 70.24 142.043 66.56C138.443 62.88 136.643 57.92 136.643 51.68ZM165.203 51.92C165.203 46.56 164.443 42.2 162.923 38.84C161.403 35.4 159.483 33.68 157.163 33.68C154.603 33.68 152.523 35.36 150.923 38.72C149.323 42 148.523 46.32 148.523 51.68C148.523 57.12 149.243 61.44 150.683 64.64C152.203 67.84 154.203 69.44 156.683 69.44C159.163 69.44 161.203 67.84 162.803 64.64C164.403 61.36 165.203 57.12 165.203 51.92ZM224.575 64.16C224.575 66.56 225.335 67.76 226.855 67.76C228.375 67.76 229.855 67.16 231.295 65.96L232.255 67.16C229.295 70.44 225.815 72.08 221.815 72.08C218.935 72.08 216.855 71.36 215.575 69.92C214.375 68.4 213.775 65.96 213.775 62.6V44.24C213.775 39.6 212.295 37.28 209.335 37.28C206.455 37.28 204.095 39.24 202.255 43.16C200.495 47.08 199.615 52.2 199.615 58.52C199.615 60.92 199.815 62.88 200.215 64.4C200.615 65.84 201.255 67.24 202.135 68.6L203.095 69.8L202.135 71H184.735L184.015 68.96L185.695 68.6C186.975 68.28 187.815 67.8 188.215 67.16C188.615 66.44 188.815 65.08 188.815 63.08V39.68C188.815 38.16 188.295 37.4 187.255 37.4H183.415L183.055 36.08C184.655 34.72 186.655 33.6 189.055 32.72C191.455 31.84 193.855 31.4 196.255 31.4C197.295 31.4 198.095 31.64 198.655 32.12C199.295 32.6 199.615 33.24 199.615 34.04V44.36C200.735 40.6 202.735 37.48 205.615 35C208.495 32.44 211.535 31.16 214.735 31.16C218.175 31.16 220.655 32.28 222.175 34.52C223.775 36.76 224.575 40.32 224.575 45.2V64.16ZM249.583 44.48C247.903 45.44 245.903 45.92 243.583 45.92C241.903 45.92 240.583 45.44 239.623 44.48C238.663 43.44 238.183 42 238.183 40.16C238.183 37.44 239.503 35.28 242.143 33.68C244.863 32 248.383 31.16 252.703 31.16C257.823 31.16 261.823 32.28 264.703 34.52C267.663 36.76 269.143 39.8 269.143 43.64V64.4C269.143 66.64 269.943 67.76 271.543 67.76C273.063 67.76 274.543 67.16 275.983 65.96L276.943 67.16C273.983 70.44 270.463 72.08 266.383 72.08C263.983 72.08 262.143 71.48 260.863 70.28C259.663 69.08 258.943 67.2 258.703 64.64H258.223C256.943 66.96 255.223 68.8 253.063 70.16C250.983 71.44 248.583 72.08 245.863 72.08C242.823 72.08 240.383 71.16 238.543 69.32C236.703 67.4 235.783 64.92 235.783 61.88C235.783 58.44 237.423 55.72 240.703 53.72C243.983 51.72 248.423 50.72 254.023 50.72C255.063 50.72 256.543 50.8 258.463 50.96V44.96C258.463 41.04 257.983 38.24 257.023 36.56C256.063 34.8 254.503 33.92 252.343 33.92C250.823 33.92 249.623 34.4 248.743 35.36C247.863 36.32 247.423 37.56 247.423 39.08C247.423 41.48 248.143 43.28 249.583 44.48ZM251.383 66.08C256.103 66.08 258.463 61.8 258.463 53.24C254.463 53.24 251.463 53.92 249.463 55.28C247.463 56.56 246.463 58.4 246.463 60.8C246.463 62.4 246.903 63.68 247.783 64.64C248.663 65.6 249.863 66.08 251.383 66.08ZM313.568 44.48C311.888 45.44 309.888 45.92 307.568 45.92C305.888 45.92 304.568 45.44 303.608 44.48C302.648 43.44 302.168 42 302.168 40.16C302.168 37.44 303.488 35.28 306.128 33.68C308.848 32 312.368 31.16 316.688 31.16C321.808 31.16 325.808 32.28 328.688 34.52C331.648 36.76 333.128 39.8 333.128 43.64V64.4C333.128 66.64 333.928 67.76 335.528 67.76C337.048 67.76 338.528 67.16 339.968 65.96L340.928 67.16C337.968 70.44 334.448 72.08 330.368 72.08C327.968 72.08 326.128 71.48 324.848 70.28C323.648 69.08 322.928 67.2 322.688 64.64H322.208C320.928 66.96 319.208 68.8 317.048 70.16C314.968 71.44 312.568 72.08 309.848 72.08C306.808 72.08 304.368 71.16 302.528 69.32C300.688 67.4 299.768 64.92 299.768 61.88C299.768 58.44 301.408 55.72 304.688 53.72C307.968 51.72 312.408 50.72 318.008 50.72C319.048 50.72 320.528 50.8 322.448 50.96V44.96C322.448 41.04 321.968 38.24 321.008 36.56C320.048 34.8 318.488 33.92 316.328 33.92C314.808 33.92 313.608 34.4 312.728 35.36C311.848 36.32 311.408 37.56 311.408 39.08C311.408 41.48 312.128 43.28 313.568 44.48ZM315.368 66.08C320.088 66.08 322.448 61.8 322.448 53.24C318.448 53.24 315.448 53.92 313.448 55.28C311.448 56.56 310.448 58.4 310.448 60.8C310.448 62.4 310.888 63.68 311.768 64.64C312.648 65.6 313.848 66.08 315.368 66.08ZM368.316 31.16C371.516 31.16 374.396 32 376.956 33.68C379.596 35.28 381.636 37.52 383.076 40.4C384.596 43.28 385.356 46.52 385.356 50.12C385.356 54.28 384.356 58.04 382.356 61.4C380.436 64.68 377.756 67.28 374.316 69.2C370.876 71.12 367.036 72.08 362.796 72.08C359.916 72.08 357.036 71.64 354.156 70.76C351.276 69.88 348.916 68.68 347.076 67.16V19.76C347.076 19.12 346.956 18.68 346.716 18.44C346.476 18.2 346.076 18.08 345.516 18.08H341.796L341.436 16.88C342.956 15.44 344.916 14.32 347.316 13.52C349.796 12.64 352.236 12.2 354.636 12.2C355.676 12.2 356.476 12.44 357.036 12.92C357.676 13.32 357.996 13.92 357.996 14.72V34.88C359.196 33.68 360.676 32.76 362.436 32.12C364.276 31.48 366.236 31.16 368.316 31.16ZM363.396 69.32C370.036 69.32 373.356 63.6 373.356 52.16C373.356 46.48 372.516 42.16 370.836 39.2C369.236 36.16 366.836 34.64 363.636 34.64C361.636 34.64 359.756 35.24 357.996 36.44V68.12C359.756 68.92 361.556 69.32 363.396 69.32ZM413.86 68.12C416.18 68.12 418.22 67.72 419.98 66.92C421.74 66.04 423.46 64.6 425.14 62.6L426.58 63.68C424.74 66.32 422.38 68.4 419.5 69.92C416.7 71.36 413.62 72.08 410.26 72.08C406.58 72.08 403.26 71.2 400.3 69.44C397.42 67.68 395.14 65.28 393.46 62.24C391.78 59.12 390.94 55.6 390.94 51.68C390.94 45.44 392.82 40.48 396.58 36.8C400.42 33.04 405.5 31.16 411.82 31.16C416.3 31.16 419.94 32.24 422.74 34.4C425.62 36.48 427.06 39.2 427.06 42.56C427.06 46.4 425.42 49.48 422.14 51.8C418.94 54.04 414.54 55.16 408.94 55.16C406.7 55.16 404.66 55 402.82 54.68C403.22 58.84 404.42 62.12 406.42 64.52C408.42 66.92 410.9 68.12 413.86 68.12ZM410.5 34.04C408.02 34.04 406.06 35.56 404.62 38.6C403.26 41.56 402.58 45.72 402.58 51.08V53C403.46 53 404.54 52.92 405.82 52.76C409.18 52.36 411.74 51.28 413.5 49.52C415.34 47.68 416.26 45.28 416.26 42.32C416.26 39.92 415.7 37.96 414.58 36.44C413.54 34.84 412.18 34.04 410.5 34.04ZM446.587 64.16C446.587 66.56 447.347 67.76 448.867 67.76C450.387 67.76 451.867 67.16 453.307 65.96L454.267 67.16C451.467 70.44 447.987 72.08 443.827 72.08C441.027 72.08 438.987 71.44 437.707 70.16C436.427 68.8 435.787 66.68 435.787 63.8V19.76C435.787 18.64 435.267 18.08 434.227 18.08H430.387L430.027 16.88C431.547 15.44 433.507 14.32 435.907 13.52C438.387 12.64 440.827 12.2 443.227 12.2C444.267 12.2 445.067 12.44 445.627 12.92C446.267 13.32 446.587 13.92 446.587 14.72V64.16ZM497.836 64.16C497.836 66.56 498.596 67.76 500.116 67.76C501.636 67.76 503.116 67.16 504.556 65.96L505.516 67.16C502.556 70.44 499.076 72.08 495.076 72.08C492.196 72.08 490.116 71.36 488.836 69.92C487.636 68.4 487.036 65.96 487.036 62.6V44.24C487.036 39.6 485.556 37.28 482.596 37.28C479.716 37.28 477.396 39.24 475.636 43.16C473.876 47.08 472.996 52.2 472.996 58.52C472.996 61 473.156 63 473.476 64.52C473.876 65.96 474.516 67.32 475.396 68.6L476.356 69.8L475.396 71H457.996L457.276 68.96L458.956 68.6C460.236 68.28 461.076 67.8 461.476 67.16C461.876 66.44 462.076 65.08 462.076 63.08V20.24C462.076 19.6 461.916 19.08 461.596 18.68C461.356 18.28 460.996 18.08 460.516 18.08H456.796L456.316 16.88C457.836 15.44 459.796 14.32 462.196 13.52C464.676 12.64 467.116 12.2 469.516 12.2C470.556 12.2 471.396 12.44 472.036 12.92C472.676 13.32 472.996 13.92 472.996 14.72V44.36C474.116 40.6 476.076 37.48 478.876 35C481.756 32.44 484.796 31.16 487.996 31.16C491.436 31.16 493.916 32.28 495.436 34.52C497.036 36.76 497.836 40.32 497.836 45.2V64.16ZM524.185 64.16C524.185 66.56 524.945 67.76 526.465 67.76C527.985 67.76 529.465 67.16 530.905 65.96L531.865 67.16C528.905 70.44 525.425 72.08 521.425 72.08C518.545 72.08 516.465 71.36 515.185 69.92C513.905 68.4 513.265 65.96 513.265 62.6V38.84C513.265 37.72 512.745 37.16 511.705 37.16H507.985L507.625 35.84C509.225 34.48 511.225 33.36 513.625 32.48C516.025 31.6 518.425 31.16 520.825 31.16C521.785 31.16 522.585 31.4 523.225 31.88C523.865 32.36 524.185 33 524.185 33.8V64.16ZM512.065 19.64C512.065 18.2 512.865 16.6 514.465 14.84C516.065 13.08 517.545 12.2 518.905 12.2C520.345 12.2 521.865 13.08 523.465 14.84C525.145 16.6 525.985 18.2 525.985 19.64C525.985 21.16 525.145 22.8 523.465 24.56C521.865 26.24 520.345 27.08 518.905 27.08C517.545 27.08 516.065 26.24 514.465 24.56C512.865 22.8 512.065 21.16 512.065 19.64ZM576.254 64.16C576.254 66.56 577.014 67.76 578.534 67.76C580.054 67.76 581.534 67.16 582.974 65.96L583.934 67.16C580.974 70.44 577.494 72.08 573.494 72.08C570.614 72.08 568.534 71.36 567.254 69.92C566.054 68.4 565.454 65.96 565.454 62.6V44.24C565.454 39.6 563.974 37.28 561.014 37.28C558.134 37.28 555.774 39.24 553.934 43.16C552.174 47.08 551.294 52.2 551.294 58.52C551.294 60.92 551.494 62.88 551.894 64.4C552.294 65.84 552.934 67.24 553.814 68.6L554.774 69.8L553.814 71H536.414L535.694 68.96L537.374 68.6C538.654 68.28 539.494 67.8 539.894 67.16C540.294 66.44 540.494 65.08 540.494 63.08V39.68C540.494 38.16 539.974 37.4 538.934 37.4H535.094L534.734 36.08C536.334 34.72 538.334 33.6 540.734 32.72C543.134 31.84 545.534 31.4 547.934 31.4C548.974 31.4 549.774 31.64 550.334 32.12C550.974 32.6 551.294 33.24 551.294 34.04V44.36C552.414 40.6 554.414 37.48 557.294 35C560.174 32.44 563.214 31.16 566.414 31.16C569.854 31.16 572.334 32.28 573.854 34.52C575.454 36.76 576.254 40.32 576.254 45.2V64.16ZM601.263 44.48C599.583 45.44 597.583 45.92 595.263 45.92C593.583 45.92 592.263 45.44 591.303 44.48C590.343 43.44 589.863 42 589.863 40.16C589.863 37.44 591.183 35.28 593.823 33.68C596.543 32 600.063 31.16 604.383 31.16C609.503 31.16 613.503 32.28 616.383 34.52C619.343 36.76 620.823 39.8 620.823 43.64V64.4C620.823 66.64 621.623 67.76 623.223 67.76C624.743 67.76 626.223 67.16 627.663 65.96L628.623 67.16C625.663 70.44 622.143 72.08 618.063 72.08C615.663 72.08 613.823 71.48 612.543 70.28C611.343 69.08 610.623 67.2 610.383 64.64H609.903C608.623 66.96 606.903 68.8 604.743 70.16C602.663 71.44 600.263 72.08 597.543 72.08C594.503 72.08 592.063 71.16 590.223 69.32C588.383 67.4 587.463 64.92 587.463 61.88C587.463 58.44 589.103 55.72 592.383 53.72C595.663 51.72 600.103 50.72 605.703 50.72C606.743 50.72 608.223 50.8 610.143 50.96V44.96C610.143 41.04 609.663 38.24 608.703 36.56C607.743 34.8 606.183 33.92 604.023 33.92C602.503 33.92 601.303 34.4 600.423 35.36C599.543 36.32 599.103 37.56 599.103 39.08C599.103 41.48 599.823 43.28 601.263 44.48ZM603.063 66.08C607.783 66.08 610.143 61.8 610.143 53.24C606.143 53.24 603.143 53.92 601.143 55.28C599.143 56.56 598.143 58.4 598.143 60.8C598.143 62.4 598.583 63.68 599.463 64.64C600.343 65.6 601.543 66.08 603.063 66.08Z" fill="#363213"/>
<path d="M17.5111 63.3707C17.7888 60.0042 22.4869 53.084 24.8013 50.0447C24.2458 58.7417 30.3557 67.2283 33.4801 70.3844C33.4801 70.3844 24.5699 68.3972 20.2883 67.2283C16.9556 66.3866 17.0482 64.3059 17.5111 63.3707Z" fill="#363213"/>
<path d="M42.1589 48.9927C40.2149 42.5401 41.5804 36.7187 42.5061 34.6146C32.5081 36.2979 29.7772 44.9013 29.6614 48.9927C29.3837 56.2869 34.6373 63.9552 37.2988 66.8776C44.5196 74.1718 53.2678 70.1506 56.7394 67.2283C48.6854 64.7033 43.6633 54.0191 42.1589 48.9927Z" fill="#363213"/>
<path d="M56.0451 36.0173C47.4357 30.9675 46.2091 38.8228 46.6719 43.3817C47.2274 49.2732 51.7635 55.8895 53.9621 58.4612C59.7943 65.1943 63.3353 60.0977 64.3767 56.7077C67.154 46.8886 59.9795 38.8228 56.0451 36.0173Z" fill="#363213"/>
<path d="M37.9931 18.1324C34.6604 22.3406 36.6045 29.705 37.9931 32.5105C49.102 27.7412 49.4492 19.5352 48.0606 16.0283C44.9362 11.82 40.076 14.9762 37.9931 18.1324Z" fill="#363213"/>
<path d="M4.66642 18.8338C20.7743 14.345 30.8186 27.0164 33.8273 33.9132C16.053 42.6102 5.36073 35.9004 2.23635 31.4584C-2.76265 24.7253 1.77348 20.2365 4.66642 18.8338Z" fill="#363213"/>
</svg>
