<svg width="94" height="82" viewBox="0 0 94 82" fill="none" xmlns="http://www.w3.org/2000/svg">
<path d="M25.5 70.5C25.9 65.7 32.6667 55.8334 36 51.5C35.2 63.9 44 76 48.5 80.5C48.5 80.5 35.6667 77.6667 29.5 76C24.7 74.8 24.8333 71.8334 25.5 70.5Z" fill="#F5D257" fill-opacity="0.83"/>
<path d="M61 50C58.2 40.8 60.1667 32.5 61.5 29.5C47.1 31.9 43.1667 44.1667 43 50C42.6 60.4 50.1667 71.3334 54 75.5C64.4 85.9 77 80.1667 82 76C70.4 72.4 63.1667 57.1667 61 50Z" fill="#F5D257" fill-opacity="0.83"/>
<path d="M81 31.5C68.6 24.3 66.8333 35.5 67.5 42C68.3 50.4 74.8333 59.8334 78 63.5001C86.4 73.1001 91.5 65.8334 93 61.0001C97 47.0001 86.6666 35.5001 81 31.5Z" fill="#F5D257" fill-opacity="0.83"/>
<path d="M55 6.0001C50.2 12.0001 53 22.5001 55 26.5001C71 19.7001 71.5 8.0001 69.5 3.0001C65 -2.99998 58 1.5 55 6.0001Z" fill="#F5D257" fill-opacity="0.83"/>
<path d="M6.99998 7.00007C30.2 0.600088 44.6667 18.6667 49 28.5C23.4 40.9 7.99998 31.3334 3.49998 25C-3.70002 15.4 2.83332 9.00006 6.99998 7.00007Z" fill="#F5D257" fill-opacity="0.83"/>
</svg>
